<?xml version="1.0" encoding="UTF-8"?>
<svg id="_x32_" xmlns="http://www.w3.org/2000/svg" version="1.1" viewBox="0 0 512 512">
  <!-- Generator: Adobe Illustrator 30.0.0, SVG Export Plug-In . SVG Version: 2.1.1 Build 123)  -->
  <defs>
    <style>
      .st0 {
        fill: #fff;
      }
    </style>
  </defs>
  <g>
    <rect class="st0" x="2.25" y="32.53" width="30.28" height="151.38" transform="translate(34.77 216.43) rotate(180)"/>
    <rect class="st0" x="2.25" y="2.25" width="30.28" height="30.28" transform="translate(34.77 34.77) rotate(180)"/>
    <rect class="st0" x="32.52" y="32.53" width="30.28" height="30.28" transform="translate(95.32 95.33) rotate(180)"/>
    <rect class="st0" x="62.8" y="62.8" width="30.28" height="30.28" transform="translate(155.88 155.88) rotate(180)"/>
    <rect class="st0" x="93.08" y="93.08" width="30.28" height="30.28" transform="translate(216.43 216.43) rotate(180)"/>
    <rect class="st0" x="123.35" y="123.35" width="30.28" height="30.28" transform="translate(276.98 276.98) rotate(180)"/>
    <rect class="st0" x="153.63" y="153.63" width="30.28" height="30.28" transform="translate(337.53 337.53) rotate(180)"/>
    <rect class="st0" x="32.52" y="2.25" width="151.38" height="30.28" transform="translate(216.43 34.77) rotate(180)"/>
  </g>
  <g>
    <rect class="st0" x="2.25" y="328.09" width="30.28" height="151.38" transform="translate(34.77 807.57) rotate(180)"/>
    <rect class="st0" x="2.25" y="479.47" width="30.28" height="30.28" transform="translate(34.77 989.23) rotate(180)"/>
    <rect class="st0" x="32.52" y="449.2" width="30.28" height="30.28" transform="translate(95.32 928.67) rotate(180)"/>
    <rect class="st0" x="62.8" y="418.92" width="30.28" height="30.28" transform="translate(155.88 868.12) rotate(180)"/>
    <rect class="st0" x="93.08" y="388.65" width="30.28" height="30.28" transform="translate(216.43 807.57) rotate(180)"/>
    <rect class="st0" x="123.35" y="358.37" width="30.28" height="30.28" transform="translate(276.98 747.02) rotate(180)"/>
    <rect class="st0" x="153.63" y="328.09" width="30.28" height="30.28" transform="translate(337.53 686.47) rotate(180)"/>
    <rect class="st0" x="32.52" y="479.47" width="151.38" height="30.28" transform="translate(216.43 989.23) rotate(180)"/>
  </g>
  <g>
    <rect class="st0" x="479.48" y="32.53" width="30.28" height="151.38"/>
    <rect class="st0" x="479.48" y="2.25" width="30.28" height="30.28"/>
    <rect class="st0" x="449.2" y="32.53" width="30.28" height="30.28"/>
    <rect class="st0" x="418.92" y="62.8" width="30.28" height="30.28"/>
    <rect class="st0" x="388.65" y="93.08" width="30.28" height="30.28"/>
    <rect class="st0" x="358.37" y="123.35" width="30.28" height="30.28"/>
    <rect class="st0" x="328.1" y="153.63" width="30.28" height="30.28"/>
    <rect class="st0" x="328.1" y="2.25" width="151.38" height="30.28"/>
  </g>
  <g>
    <rect class="st0" x="479.48" y="328.09" width="30.28" height="151.38"/>
    <rect class="st0" x="479.48" y="479.47" width="30.28" height="30.28"/>
    <rect class="st0" x="449.2" y="449.2" width="30.28" height="30.28"/>
    <rect class="st0" x="418.92" y="418.92" width="30.28" height="30.28"/>
    <rect class="st0" x="388.65" y="388.65" width="30.28" height="30.28"/>
    <rect class="st0" x="358.37" y="358.37" width="30.28" height="30.28"/>
    <rect class="st0" x="328.1" y="328.09" width="30.28" height="30.28"/>
    <rect class="st0" x="328.1" y="479.47" width="151.38" height="30.28"/>
  </g>
</svg>